<mxfile host="app.diagrams.net" modified="2022-09-04T10:13:03.762Z" agent="5.0 (Macintosh; Intel Mac OS X 10_15_7) AppleWebKit/537.36 (KHTML, like Gecko) Chrome/104.0.0.0 Safari/537.36" etag="N32qj1nhveE3WrIAq98b" version="20.2.4" type="github">
  <diagram id="pWBxaIBoDNs736sIazqd" name="第 1 页">
    <mxGraphModel dx="2088" dy="672" grid="1" gridSize="10" guides="1" tooltips="1" connect="1" arrows="1" fold="1" page="1" pageScale="1" pageWidth="827" pageHeight="1169" math="0" shadow="0">
      <root>
        <mxCell id="0" />
        <mxCell id="1" parent="0" />
        <mxCell id="UKfnxawZgVlUQVp_VntX-61" value="" style="rounded=1;whiteSpace=wrap;html=1;fontSize=21;fillColor=#f5f5f5;fontColor=#333333;strokeColor=#666666;" vertex="1" parent="1">
          <mxGeometry x="-70" y="1150" width="1440" height="509" as="geometry" />
        </mxCell>
        <mxCell id="UKfnxawZgVlUQVp_VntX-5" value="" style="rounded=1;whiteSpace=wrap;html=1;fontSize=19;fillColor=#f5f5f5;fontColor=#333333;strokeColor=#666666;" vertex="1" parent="1">
          <mxGeometry x="-40" y="100" width="1360" height="1020" as="geometry" />
        </mxCell>
        <mxCell id="UKfnxawZgVlUQVp_VntX-2" value="&lt;font style=&quot;font-size: 36px;&quot;&gt;leveldb&lt;/font&gt;" style="rounded=1;whiteSpace=wrap;html=1;fontStyle=1;fontSize=19;fillColor=#1ba1e2;strokeColor=#006EAF;fontColor=#ffffff;" vertex="1" parent="1">
          <mxGeometry x="-47.5" y="1240" width="1395" height="310" as="geometry" />
        </mxCell>
        <mxCell id="UKfnxawZgVlUQVp_VntX-3" value="&lt;b&gt;&lt;font style=&quot;font-size: 32px;&quot;&gt;KhaosDB&lt;/font&gt;&lt;/b&gt;" style="rounded=1;whiteSpace=wrap;html=1;fontSize=19;fillColor=#e1d5e7;strokeColor=#9673a6;" vertex="1" parent="1">
          <mxGeometry x="920" y="440" width="350" height="280" as="geometry" />
        </mxCell>
        <mxCell id="UKfnxawZgVlUQVp_VntX-21" style="edgeStyle=orthogonalEdgeStyle;rounded=0;orthogonalLoop=1;jettySize=auto;html=1;fontSize=19;strokeWidth=4;" edge="1" parent="1" source="UKfnxawZgVlUQVp_VntX-4" target="UKfnxawZgVlUQVp_VntX-9">
          <mxGeometry relative="1" as="geometry">
            <Array as="points">
              <mxPoint x="280" y="730" />
              <mxPoint x="280" y="730" />
            </Array>
          </mxGeometry>
        </mxCell>
        <mxCell id="UKfnxawZgVlUQVp_VntX-9" value="" style="rounded=1;whiteSpace=wrap;html=1;fontSize=19;fillColor=#ffe6cc;strokeColor=#d79b00;" vertex="1" parent="1">
          <mxGeometry x="25" y="830" width="1240" height="190" as="geometry" />
        </mxCell>
        <mxCell id="UKfnxawZgVlUQVp_VntX-54" style="edgeStyle=orthogonalEdgeStyle;rounded=0;orthogonalLoop=1;jettySize=auto;html=1;fontSize=33;strokeWidth=4;" edge="1" parent="1" source="UKfnxawZgVlUQVp_VntX-2" target="UKfnxawZgVlUQVp_VntX-9">
          <mxGeometry relative="1" as="geometry">
            <Array as="points">
              <mxPoint x="910" y="1070" />
              <mxPoint x="910" y="1070" />
            </Array>
          </mxGeometry>
        </mxCell>
        <mxCell id="UKfnxawZgVlUQVp_VntX-4" value="&lt;font size=&quot;1&quot; style=&quot;&quot;&gt;&lt;b style=&quot;font-size: 33px;&quot;&gt;&lt;br&gt;&lt;br&gt;&lt;br&gt;&lt;br&gt;&lt;br&gt;SnapshotManager&lt;/b&gt;&lt;/font&gt;" style="rounded=1;whiteSpace=wrap;html=1;fontSize=19;fillColor=#d5e8d4;strokeColor=#82b366;" vertex="1" parent="1">
          <mxGeometry x="10" y="440" width="860" height="280" as="geometry" />
        </mxCell>
        <mxCell id="UKfnxawZgVlUQVp_VntX-14" value="" style="edgeStyle=orthogonalEdgeStyle;rounded=0;orthogonalLoop=1;jettySize=auto;html=1;fontSize=19;strokeWidth=4;" edge="1" parent="1" source="UKfnxawZgVlUQVp_VntX-10" target="UKfnxawZgVlUQVp_VntX-13">
          <mxGeometry relative="1" as="geometry" />
        </mxCell>
        <mxCell id="UKfnxawZgVlUQVp_VntX-10" value="SnapshotImpl n" style="rounded=1;whiteSpace=wrap;html=1;fontSize=21;fontStyle=1" vertex="1" parent="1">
          <mxGeometry x="990" y="860" width="170" height="90" as="geometry" />
        </mxCell>
        <mxCell id="UKfnxawZgVlUQVp_VntX-16" value="" style="edgeStyle=orthogonalEdgeStyle;rounded=0;orthogonalLoop=1;jettySize=auto;html=1;fontSize=19;strokeWidth=4;" edge="1" parent="1" source="UKfnxawZgVlUQVp_VntX-13" target="UKfnxawZgVlUQVp_VntX-15">
          <mxGeometry relative="1" as="geometry" />
        </mxCell>
        <mxCell id="UKfnxawZgVlUQVp_VntX-13" value="SnapshotImpl 1" style="rounded=1;whiteSpace=wrap;html=1;fontSize=21;fontStyle=1" vertex="1" parent="1">
          <mxGeometry x="690" y="860" width="190" height="90" as="geometry" />
        </mxCell>
        <mxCell id="UKfnxawZgVlUQVp_VntX-18" value="" style="edgeStyle=orthogonalEdgeStyle;rounded=0;orthogonalLoop=1;jettySize=auto;html=1;fontSize=19;strokeWidth=4;" edge="1" parent="1" source="UKfnxawZgVlUQVp_VntX-15" target="UKfnxawZgVlUQVp_VntX-17">
          <mxGeometry relative="1" as="geometry" />
        </mxCell>
        <mxCell id="UKfnxawZgVlUQVp_VntX-15" value="SnapshotImpl 0" style="rounded=1;whiteSpace=wrap;html=1;fontSize=21;fontStyle=1" vertex="1" parent="1">
          <mxGeometry x="400" y="860" width="170" height="90" as="geometry" />
        </mxCell>
        <mxCell id="UKfnxawZgVlUQVp_VntX-25" value="" style="rounded=1;whiteSpace=wrap;html=1;fontSize=30;fillColor=#dae8fc;strokeColor=#6c8ebf;" vertex="1" parent="1">
          <mxGeometry x="40" y="160" width="1220" height="200" as="geometry" />
        </mxCell>
        <mxCell id="UKfnxawZgVlUQVp_VntX-53" style="edgeStyle=orthogonalEdgeStyle;rounded=0;orthogonalLoop=1;jettySize=auto;html=1;fontSize=33;strokeWidth=4;" edge="1" parent="1" source="UKfnxawZgVlUQVp_VntX-9">
          <mxGeometry relative="1" as="geometry">
            <mxPoint x="230" y="1240" as="targetPoint" />
            <Array as="points">
              <mxPoint x="230" y="1060" />
              <mxPoint x="230" y="1060" />
            </Array>
          </mxGeometry>
        </mxCell>
        <mxCell id="UKfnxawZgVlUQVp_VntX-17" value="SnapshotRoot" style="rounded=1;whiteSpace=wrap;html=1;fontSize=21;fontStyle=1;fillColor=#a20025;strokeColor=#6F0000;fontColor=#ffffff;" vertex="1" parent="1">
          <mxGeometry x="60" y="845" width="210" height="120" as="geometry" />
        </mxCell>
        <mxCell id="UKfnxawZgVlUQVp_VntX-23" value="&lt;b&gt;Memory&lt;/b&gt;" style="text;html=1;strokeColor=none;fillColor=none;align=center;verticalAlign=middle;whiteSpace=wrap;rounded=0;fontSize=30;" vertex="1" parent="1">
          <mxGeometry x="600" y="1060" width="60" height="30" as="geometry" />
        </mxCell>
        <mxCell id="UKfnxawZgVlUQVp_VntX-22" value="AccountStore" style="rounded=1;whiteSpace=wrap;html=1;fontSize=23;fontStyle=1" vertex="1" parent="1">
          <mxGeometry x="70" y="230" width="190" height="80" as="geometry" />
        </mxCell>
        <mxCell id="UKfnxawZgVlUQVp_VntX-26" value="&lt;b&gt;ITronChainBase&lt;/b&gt;" style="text;html=1;strokeColor=none;fillColor=none;align=center;verticalAlign=middle;whiteSpace=wrap;rounded=0;fontSize=30;" vertex="1" parent="1">
          <mxGeometry x="630" y="320" width="105" height="30" as="geometry" />
        </mxCell>
        <mxCell id="UKfnxawZgVlUQVp_VntX-27" value="BlockStore" style="rounded=1;whiteSpace=wrap;html=1;fontSize=23;fontStyle=1" vertex="1" parent="1">
          <mxGeometry x="300" y="230" width="190" height="80" as="geometry" />
        </mxCell>
        <mxCell id="UKfnxawZgVlUQVp_VntX-28" value="ContractStore" style="rounded=1;whiteSpace=wrap;html=1;fontSize=23;fontStyle=1" vertex="1" parent="1">
          <mxGeometry x="530" y="230" width="190" height="80" as="geometry" />
        </mxCell>
        <mxCell id="UKfnxawZgVlUQVp_VntX-33" value="" style="endArrow=classic;html=1;rounded=0;fontSize=26;entryX=0.25;entryY=0;entryDx=0;entryDy=0;exitX=0.151;exitY=1.002;exitDx=0;exitDy=0;exitPerimeter=0;strokeWidth=4;" edge="1" parent="1" source="UKfnxawZgVlUQVp_VntX-25" target="UKfnxawZgVlUQVp_VntX-4">
          <mxGeometry width="50" height="50" relative="1" as="geometry">
            <mxPoint x="250" y="400" as="sourcePoint" />
            <mxPoint x="300" y="350" as="targetPoint" />
          </mxGeometry>
        </mxCell>
        <mxCell id="UKfnxawZgVlUQVp_VntX-35" value="" style="endArrow=classic;html=1;rounded=0;fontSize=26;exitX=0.664;exitY=-0.004;exitDx=0;exitDy=0;exitPerimeter=0;strokeWidth=4;" edge="1" parent="1" source="UKfnxawZgVlUQVp_VntX-4">
          <mxGeometry width="50" height="50" relative="1" as="geometry">
            <mxPoint x="530" y="410" as="sourcePoint" />
            <mxPoint x="580" y="360" as="targetPoint" />
          </mxGeometry>
        </mxCell>
        <mxCell id="UKfnxawZgVlUQVp_VntX-36" value="" style="endArrow=classic;html=1;rounded=0;fontSize=26;strokeWidth=4;exitX=0.529;exitY=-0.023;exitDx=0;exitDy=0;exitPerimeter=0;entryX=0.781;entryY=1.001;entryDx=0;entryDy=0;entryPerimeter=0;" edge="1" parent="1" source="UKfnxawZgVlUQVp_VntX-9" target="UKfnxawZgVlUQVp_VntX-4">
          <mxGeometry width="50" height="50" relative="1" as="geometry">
            <mxPoint x="680" y="740" as="sourcePoint" />
            <mxPoint x="680" y="730" as="targetPoint" />
          </mxGeometry>
        </mxCell>
        <mxCell id="UKfnxawZgVlUQVp_VntX-42" style="edgeStyle=orthogonalEdgeStyle;rounded=0;orthogonalLoop=1;jettySize=auto;html=1;exitX=1;exitY=0.75;exitDx=0;exitDy=0;entryX=0;entryY=0.75;entryDx=0;entryDy=0;fontSize=33;strokeWidth=4;" edge="1" parent="1" source="UKfnxawZgVlUQVp_VntX-37" target="UKfnxawZgVlUQVp_VntX-38">
          <mxGeometry relative="1" as="geometry" />
        </mxCell>
        <mxCell id="UKfnxawZgVlUQVp_VntX-37" value="Session" style="rounded=1;whiteSpace=wrap;html=1;fontSize=33;fillColor=#f5f5f5;fontColor=#333333;strokeColor=#666666;" vertex="1" parent="1">
          <mxGeometry x="20" y="460" width="240" height="180" as="geometry" />
        </mxCell>
        <mxCell id="UKfnxawZgVlUQVp_VntX-40" style="edgeStyle=orthogonalEdgeStyle;rounded=0;orthogonalLoop=1;jettySize=auto;html=1;fontSize=33;strokeWidth=4;" edge="1" parent="1" source="UKfnxawZgVlUQVp_VntX-38" target="UKfnxawZgVlUQVp_VntX-39">
          <mxGeometry relative="1" as="geometry">
            <Array as="points">
              <mxPoint x="560" y="600" />
              <mxPoint x="560" y="600" />
            </Array>
          </mxGeometry>
        </mxCell>
        <mxCell id="UKfnxawZgVlUQVp_VntX-41" value="" style="edgeStyle=orthogonalEdgeStyle;rounded=0;orthogonalLoop=1;jettySize=auto;html=1;fontSize=33;strokeWidth=4;" edge="1" parent="1" source="UKfnxawZgVlUQVp_VntX-38" target="UKfnxawZgVlUQVp_VntX-37">
          <mxGeometry relative="1" as="geometry">
            <Array as="points">
              <mxPoint x="290" y="530" />
              <mxPoint x="290" y="530" />
            </Array>
          </mxGeometry>
        </mxCell>
        <mxCell id="UKfnxawZgVlUQVp_VntX-38" value="Session" style="rounded=1;whiteSpace=wrap;html=1;fontSize=33;fillColor=#f5f5f5;fontColor=#333333;strokeColor=#666666;" vertex="1" parent="1">
          <mxGeometry x="310" y="460" width="240" height="180" as="geometry" />
        </mxCell>
        <mxCell id="UKfnxawZgVlUQVp_VntX-43" style="edgeStyle=orthogonalEdgeStyle;rounded=0;orthogonalLoop=1;jettySize=auto;html=1;exitX=0.003;exitY=0.409;exitDx=0;exitDy=0;entryX=1;entryY=0.409;entryDx=0;entryDy=0;fontSize=33;strokeWidth=4;entryPerimeter=0;exitPerimeter=0;" edge="1" parent="1" source="UKfnxawZgVlUQVp_VntX-39" target="UKfnxawZgVlUQVp_VntX-38">
          <mxGeometry relative="1" as="geometry" />
        </mxCell>
        <mxCell id="UKfnxawZgVlUQVp_VntX-39" value="Session" style="rounded=1;whiteSpace=wrap;html=1;fontSize=33;fillColor=#f5f5f5;fontColor=#333333;strokeColor=#666666;" vertex="1" parent="1">
          <mxGeometry x="600" y="460" width="240" height="180" as="geometry" />
        </mxCell>
        <mxCell id="UKfnxawZgVlUQVp_VntX-44" value="&lt;b&gt;Chainbase&lt;/b&gt;" style="text;html=1;strokeColor=none;fillColor=none;align=center;verticalAlign=middle;whiteSpace=wrap;rounded=0;fontSize=33;" vertex="1" parent="1">
          <mxGeometry x="590" y="980" width="60" height="30" as="geometry" />
        </mxCell>
        <mxCell id="UKfnxawZgVlUQVp_VntX-55" value="&lt;pre style=&quot;background-color: rgb(255, 255, 255); color: rgb(8, 8, 8); font-family: Menlo, monospace;&quot;&gt;&lt;span style=&quot;color: rgb(0, 0, 0);&quot;&gt;&lt;font style=&quot;font-size: 22px;&quot;&gt;KhaosDatabase&lt;/font&gt;&lt;/span&gt;&lt;/pre&gt;" style="rounded=1;whiteSpace=wrap;html=1;fontSize=19;fontStyle=1" vertex="1" parent="1">
          <mxGeometry x="1010" y="230" width="190" height="80" as="geometry" />
        </mxCell>
        <mxCell id="UKfnxawZgVlUQVp_VntX-56" style="edgeStyle=orthogonalEdgeStyle;rounded=0;orthogonalLoop=1;jettySize=auto;html=1;entryX=0.383;entryY=-0.01;entryDx=0;entryDy=0;entryPerimeter=0;fontSize=33;strokeWidth=4;" edge="1" parent="1" source="UKfnxawZgVlUQVp_VntX-55" target="UKfnxawZgVlUQVp_VntX-3">
          <mxGeometry relative="1" as="geometry">
            <Array as="points">
              <mxPoint x="1054" y="330" />
              <mxPoint x="1054" y="330" />
            </Array>
          </mxGeometry>
        </mxCell>
        <mxCell id="UKfnxawZgVlUQVp_VntX-57" style="edgeStyle=orthogonalEdgeStyle;rounded=0;orthogonalLoop=1;jettySize=auto;html=1;fontSize=33;strokeWidth=4;entryX=0.877;entryY=0.983;entryDx=0;entryDy=0;entryPerimeter=0;" edge="1" parent="1" source="UKfnxawZgVlUQVp_VntX-3" target="UKfnxawZgVlUQVp_VntX-55">
          <mxGeometry relative="1" as="geometry">
            <Array as="points">
              <mxPoint x="1177" y="400" />
              <mxPoint x="1177" y="400" />
            </Array>
          </mxGeometry>
        </mxCell>
        <mxCell id="UKfnxawZgVlUQVp_VntX-60" value="..." style="rounded=1;whiteSpace=wrap;html=1;fontSize=23;fontStyle=1" vertex="1" parent="1">
          <mxGeometry x="760" y="230" width="190" height="80" as="geometry" />
        </mxCell>
        <mxCell id="UKfnxawZgVlUQVp_VntX-63" value="&lt;b style=&quot;font-size: 41px;&quot;&gt;Disk&lt;br style=&quot;font-size: 41px;&quot;&gt;&lt;/b&gt;" style="text;html=1;strokeColor=none;fillColor=none;align=center;verticalAlign=middle;whiteSpace=wrap;rounded=0;fontSize=41;" vertex="1" parent="1">
          <mxGeometry x="610" y="1560" width="60" height="30" as="geometry" />
        </mxCell>
      </root>
    </mxGraphModel>
  </diagram>
</mxfile>
